<svg width="64" height="10" viewBox="0 0 64 10" fill="none" xmlns="http://www.w3.org/2000/svg">
<path d="M20.7329 2.47559C19.8224 2.47559 18.9934 2.7689 18.3776 3.24253V2.6559H17.2993V9.36364H18.3776V7.29843C18.9934 7.77205 19.82 8.06537 20.7329 8.06537C22.6258 8.06537 24.1641 6.81278 24.1641 5.27168C24.1641 3.73058 22.6258 2.47559 20.7329 2.47559ZM20.7329 6.98347C19.4342 6.98347 18.3776 6.21413 18.3776 5.27168C18.3776 4.32923 19.4342 3.55988 20.7329 3.55988C22.0316 3.55988 23.0859 4.32923 23.0859 5.27168C23.0859 6.21413 22.0316 6.98347 20.7329 6.98347Z" fill="white"/>
<path d="M12.4307 2.47559C11.5202 2.47559 10.6911 2.7689 10.0753 3.24253V2.6559H8.99707V9.36364H10.0753V7.29843C10.6911 7.77205 11.5178 8.06537 12.4307 8.06537C14.3236 8.06537 15.8619 6.81278 15.8619 5.27168C15.8619 3.73058 14.3236 2.47559 12.4307 2.47559ZM12.4307 6.98347C11.132 6.98347 10.0753 6.21413 10.0753 5.27168C10.0753 4.32923 11.132 3.55988 12.4307 3.55988C13.7294 3.55988 14.7836 4.32923 14.7836 5.27168C14.7836 6.21413 13.7294 6.98347 12.4307 6.98347Z" fill="white"/>
<path d="M61.1669 4.64659H59.6238C59.1182 4.64659 58.766 4.35568 58.766 4.09602C58.766 3.83396 59.1182 3.54305 59.6238 3.54305H62.5518V2.47559H59.6238C58.5623 2.47559 57.6997 3.20166 57.6997 4.09602C57.6997 4.98798 58.5623 5.71405 59.6238 5.71405H61.1669C61.6748 5.71405 62.0271 6.00496 62.0271 6.26462C62.0271 6.52427 61.6748 6.81518 61.1669 6.81518H58.0615V7.88505H61.1669C62.2283 7.88505 63.0933 7.15898 63.0933 6.26462C63.0909 5.37266 62.2283 4.64659 61.1669 4.64659Z" fill="white"/>
<path d="M39.6143 8.06535C37.7214 8.06535 36.1807 6.81275 36.1807 5.27166C36.1807 3.73056 37.7214 2.47797 39.6143 2.47797C41.5072 2.47797 43.0455 3.73056 43.0455 5.27166C43.0455 6.81275 41.5072 8.06535 39.6143 8.06535ZM39.6143 3.55746C38.3156 3.55746 37.2589 4.3268 37.2589 5.26925C37.2589 6.2117 38.3156 6.98105 39.6143 6.98105C40.9129 6.98105 41.9672 6.2117 41.9672 5.26925C41.9672 4.3268 40.9129 3.55746 39.6143 3.55746Z" fill="white"/>
<path d="M34.8649 1.17731H33.7866V7.88505H34.8649V1.17731Z" fill="white"/>
<path d="M49.069 6.66852C48.6832 6.86567 48.216 6.98348 47.708 6.98348C46.4093 6.98348 45.3527 6.21413 45.3527 5.27168C45.3527 4.32923 46.4093 3.55988 47.708 3.55988C48.216 3.55988 48.6832 3.67769 49.069 3.87724V3.87484L50.1041 3.27378C49.4859 2.78092 48.6401 2.47559 47.708 2.47559C45.8151 2.47559 44.2744 3.72818 44.2744 5.26928C44.2744 6.81037 45.8151 8.06297 47.708 8.06297C48.6401 8.06297 49.4859 7.75763 50.1041 7.26477L49.069 6.66852Z" fill="white"/>
<path d="M32.4688 5.27167C32.4688 3.73058 30.9281 2.47798 29.0376 2.47798C28.1271 2.47798 27.298 2.7713 26.6822 3.24493V1.17731H25.604V7.88505H26.6822V7.29842C27.298 7.77205 28.1247 8.06536 29.0376 8.06536C30.9281 8.06536 32.4688 6.81277 32.4688 5.27167ZM31.3906 5.27167C31.3906 6.21653 30.3339 6.98347 29.0376 6.98347C27.7389 6.98347 26.6822 6.21412 26.6822 5.27167C26.6822 4.32922 27.7389 3.55988 29.0376 3.55988C30.3339 3.55747 31.3906 4.32682 31.3906 5.27167Z" fill="white"/>
<path d="M56.581 2.65589H55.0571L53.3894 4.32682L52.625 5.09136L52.4405 5.27648V1.17731H51.3623V7.88505H52.4405V6.80796L53.3894 5.8583L55.4093 7.88505H56.9332L54.1514 5.09136L56.581 2.65589Z" fill="white"/>
<path d="M3.97708 3.14394L6.33962 7.88504H7.58799L3.97708 0.636353L0.36377 7.88504H1.61213L3.97708 3.14394Z" fill="white"/>
</svg>
