<svg width="39" height="24" viewBox="0 0 39 24" fill="none" xmlns="http://www.w3.org/2000/svg">
<path d="M23.256 0L18.936 2.496V8.52L24.984 12L18.936 15.504V21.528L23.256 24.024L38.832 15.024V9L23.256 0ZM19.896 7.968V3.6L25.368 6.768H25.392L29.736 9.264L25.968 11.448L19.896 7.968ZM22.776 22.608L19.896 20.952V16.608L22.776 18.264V22.608ZM20.376 15.768L31.632 9.264L20.376 2.784L23.256 1.128L37.392 9.288L23.256 17.448L20.376 15.768ZM37.872 14.448L23.736 22.608V18.264L37.872 10.104V14.448Z" fill="white"/>
<path d="M19.896 8.52V2.496L15.576 0L0 9V15.024L15.576 24L19.896 21.504V15.48L13.848 12L19.896 8.52ZM15.096 22.608L0.96 14.448V10.104L15.096 18.264V22.608ZM18.936 20.952L16.056 22.608V18.264L18.936 16.608V20.952ZM15.576 17.424L1.44 9.264L15.576 1.104L18.456 2.76L7.2 9.264L18.456 15.768L15.576 17.424ZM9.12 9.264L13.464 6.768H13.488L18.912 3.624L18.936 3.6V7.944L12.888 11.448L9.12 9.264Z" fill="white"/>
</svg>
