<svg width="65" height="40" viewBox="0 0 65 40" fill="none" xmlns="http://www.w3.org/2000/svg">
<g clip-path="url(#clip0_3432_399)">
<path d="M38.7598 0L30.7598 4.62L49.5198 15.452L31.5598 25.82V35.84L38.7598 40L64.7198 25.016V14.992L38.7598 0ZM52.7198 15.452L33.9598 4.62L38.7598 1.848L62.3198 15.452L38.7598 29.052L33.9598 26.28L52.7198 15.452ZM33.1598 27.668L37.9598 30.44V37.692L33.1598 34.92V27.668ZM63.1198 24.092L39.5598 37.688V30.436L63.1198 16.836V24.092Z" fill="#D453B5"/>
<path d="M15.2 15.452L33.96 4.62L25.96 0L1.6 14.068L0 14.992V25.016L25.96 40L33.16 35.844V25.816L15.2 15.452ZM25.16 37.692L1.6 24.092V16.836L25.16 30.44V37.692ZM2.4 15.452L25.96 1.848L30.76 4.62L12 15.452L30.76 26.28L25.96 29.052L2.4 15.452ZM31.56 34.92L26.76 37.688V30.436L31.56 27.664V34.92Z" fill="#5E5EDE"/>
<path d="M25.1648 17.3C26.9322 17.3 28.3648 16.4726 28.3648 15.452C28.3648 14.4314 26.9322 13.604 25.1648 13.604C23.3975 13.604 21.9648 14.4314 21.9648 15.452C21.9648 16.4726 23.3975 17.3 25.1648 17.3Z" fill="#5E5EDE"/>
<path d="M39.5633 17.3C41.3306 17.3 42.7633 16.4726 42.7633 15.452C42.7633 14.4314 41.3306 13.604 39.5633 13.604C37.796 13.604 36.3633 14.4314 36.3633 15.452C36.3633 16.4726 37.796 17.3 39.5633 17.3Z" fill="#5E5EDE"/>
<path d="M25.9609 15.644C27.5329 16.656 29.8169 17.296 32.3609 17.296C34.9049 17.296 37.1889 16.656 38.7609 15.644" stroke="#5E5EDE" stroke-width="1.5" stroke-miterlimit="10"/>
</g>
<defs>
<clipPath id="clip0_3432_399">
<rect width="64.72" height="40" fill="white"/>
</clipPath>
</defs>
</svg>
